Motion_pu04
version=1
nRows=9
nColumns=43
inDegrees=yes
endheader
time	pelvis_tilt	pelvis_list	pelvis_rotation	pelvis_tx	pelvis_ty	pelvis_tz	hip_flexion_r	hip_adduction_r	hip_rotation_r	knee_angle_r	ankle_angle_r	subtalar_angle_r	mtp_angle_r	hip_flexion_l	hip_adduction_l	hip_rotation_l	knee_angle_l	ankle_angle_l	subtalar_angle_l	mtp_angle_l	lumbar_extension	lumbar_bending	lumbar_rotation	neck_flexion	neck_lateral_bending	neck_rotation	arm_flex_r	arm_add_r	arm_rot_r	elbow_flex_r	pro_sup_r	wrist_flex_r	wrist_dev_r	hand_finger_flex_r	arm_flex_l	arm_add_l	arm_rot_l	elbow_flex_l	pro_sup_l	wrist_flex_l	wrist_dev_l	hand_finger_flex_l
      1.88250000	      0.69159260	     -7.33078233	     89.59957494	      0.00645958	      0.71564335	      0.36458144	     61.51845676	     -3.42253387	     -1.10514831	    -98.69804124	     23.85279951	      6.18542449	     22.04695508	     63.42510474	     -8.71470837	      0.30165534	    -98.59793855	     14.27746419	     16.24562199	     40.64895113	    -56.52985779	     -0.07372611	      0.81194944	     24.80713483	     -1.30855047	      6.50894376	     14.58033125	    -21.68040132	     -9.19075530	     78.65720097	    109.81163895	    -10.31301428	    -24.99999983	     -5.13078425	     15.88595245	    -16.65304841	    -11.40116856	     56.67048804	     96.38474990	    -28.72061509	    -20.64760137	     -0.48576999
      1.88500000	      0.76093049	     -7.06400919	     89.59473597	      0.00666879	      0.71762003	      0.36419607	     60.98229023	     -3.25841138	     -1.20093582	    -98.36934364	     23.81199977	      5.49502691	     21.77741434	     62.91245012	     -8.81646129	      0.31605479	    -98.32894184	     14.32251596	     16.32395975	     40.53007464	    -56.72218898	     -0.04597862	      0.89170376	     24.37209851	     -1.25854290	      6.70573080	     14.33983596	    -21.56717476	     -9.31938711	     78.45070476	    110.19540829	    -10.22841889	    -24.99999983	     -5.15415610	     15.62552002	    -16.54488324	    -11.50813764	     56.42464388	     95.97981468	    -28.29772251	    -20.73912786	     -0.67117129
      1.88750000	      0.77509604	     -7.13998738	     89.61299398	      0.00672700	      0.71935742	      0.36412295	     60.82644875	     -3.21156628	     -1.20588474	    -97.99358693	     23.75181588	      5.49460683	     21.74643176	     62.76909953	     -8.80632886	      0.28742585	    -97.95155024	     14.27963723	     16.32696021	     40.51008499	    -56.66029227	     -0.02304019	      0.91519091	     24.37712635	     -1.26416834	      6.71205167	     14.09027362	    -21.49364483	     -9.34205160	     78.27325717	    110.21156878	    -10.23041259	    -24.99999983	     -5.16218749	     15.34754896	    -16.48867499	    -11.53253079	     56.27668370	     95.93295696	    -28.29117023	    -20.71903001	     -0.69690201
      1.89000000	      0.78314609	     -7.18609924	     89.63370211	      0.00672746	      0.72111848	      0.36402229	     60.63703341	     -3.18549106	     -1.22580803	    -97.61497937	     23.69183600	      5.47665461	     21.71212262	     62.58876789	     -8.79162588	      0.26029135	    -97.58477112	     14.22655581	     16.32721742	     40.48790953	    -56.62049036	      0.00533398	      0.92461653	     24.32641239	     -1.26087429	      6.72811859	     13.84963004	    -21.41121304	     -9.38732539	     78.09475872	    110.23001724	    -10.23822745	    -24.99999983	     -5.17295978	     15.07523010	    -16.40792989	    -11.57714983	     56.11620517	     95.86967362	    -28.29271261	    -20.70038900	     -0.73362815
      1.89250000	      0.77580340	     -7.02765236	     89.67112280	      0.00666309	      0.72300346	      0.36371197	     60.23272837	     -3.22342413	     -1.28772717	    -97.30875693	     23.64296865	      5.32638916	     21.59476736	     62.19938213	     -8.75143313	      0.22598189	    -97.28074794	     14.12665684	     16.31377886	     40.42000497	    -56.71642468	      0.04251199	      0.89979966	     24.02044987	     -1.21952016	      6.80171166	     13.67052661	    -21.17157810	     -9.56543149	     77.78319422	    110.33980361	    -10.25458788	    -24.99999983	     -5.21671715	     14.85139655	    -16.22657416	    -11.75961540	     55.82569671	     95.62228328	    -28.27409967	    -20.73415173	     -0.91852350
      1.89500000	      0.76315568	     -7.09422845	     89.69259850	      0.00661132	      0.72470049	      0.36360005	     60.06690846	     -3.23124569	     -1.29350860	    -96.93281775	     23.60294201	      5.31543477	     21.56480401	     62.04202182	     -8.71741698	      0.18585604	    -96.91509363	     14.09612095	     16.31099683	     40.40112827	    -56.65552394	      0.06802418	      0.88993251	     23.95815922	     -1.21643787	      6.81331166	     13.39698229	    -21.15235508	     -9.55393304	     77.66117522	    110.37239399	    -10.23900332	    -24.99999983	     -5.21630420	     14.54874218	    -16.17452065	    -11.75976413	     55.69886969	     95.58152519	    -28.26722819	    -20.73529787	     -0.95228679
      1.89750000	      0.66178320	     -6.93531783	     89.72711681	      0.00646105	      0.72662444	      0.36324595	     59.66036244	     -3.37161602	     -1.30038006	    -96.62577512	     23.61033346	      5.21440517	     21.45102082	     61.59907839	     -8.60223005	      0.05479397	    -96.55839628	     14.03784409	     16.28143944	     40.33271246	    -56.75385352	      0.05762955	      0.78399226	     23.63816205	     -1.18438447	      6.86958723	     13.21459866	    -20.96188059	     -9.67549514	     77.37007018	    110.49807708	    -10.22977663	    -24.99999983	     -5.25389862	     14.31488720	    -16.05629303	    -11.83513123	     55.40799613	     95.35807271	    -28.22620886	    -20.77637269	     -1.14374030
      1.90000000	      0.64076301	     -6.99792529	     89.73729792	      0.00644217	      0.72837206	      0.36306841	     59.47578287	     -3.37608427	     -1.29883658	    -96.23330132	     23.57363286	      5.21651383	     21.41888079	     61.42069435	     -8.57423497	     -0.00254569	    -96.18253231	     14.00889100	     16.27351301	     40.31157210	    -56.69679133	      0.06649672	      0.76438216	     23.57626041	     -1.18096531	      6.87869381	     12.94560082	    -20.92963300	     -9.66830817	     77.24486064	    110.53005922	    -10.21534266	    -24.99999983	     -5.25582487	     14.00968974	    -16.01357588	    -11.82214257	     55.26460737	     95.31359527	    -28.21084378	    -20.76665337	     -1.17640221
      1.90250000	      0.49717413	     -6.79831196	     89.73348521	      0.00637553	      0.73039133	      0.36261605	     59.02602447	     -3.50992122	     -1.24410004	    -95.93478512	     23.60373280	      5.16933462	     21.31117349	     60.89998046	     -8.48645615	     -0.21327229	    -95.81303629	     13.96291572	     16.22803918	     40.24139812	    -56.83240952	     -0.00226621	      0.64873476	     23.29529189	     -1.15683995	      6.92233469	     12.76704934	    -20.72034179	     -9.79400858	     76.93255158	    110.63390266	    -10.20657163	    -24.99999983	     -5.29451300	     13.80194281	    -15.94846263	    -11.80204926	     54.94522839	     95.10588641	    -28.09576122	    -20.72329275	     -1.29858373
